<svg xmlns="http://www.w3.org/2000/svg" version="1.1" xmlns:xlink="http://www.w3.org/1999/xlink" xmlns:svgjs="http://svgjs.dev/svgjs" width="1000" height="136" viewBox="0 0 1000 136"><g transform="matrix(1,0,0,1,-0.6060606021064814,-0.3394482213093255)"><svg viewBox="0 0 396 54" data-background-color="#ffffff" preserveAspectRatio="xMidYMid meet" height="136" width="1000" xmlns="http://www.w3.org/2000/svg" xmlns:xlink="http://www.w3.org/1999/xlink"><g id="tight-bounds" transform="matrix(1,0,0,1,0.2400000015659316,0.13478093792465984)"><svg viewBox="0 0 395.52 53.730438150673145" height="53.730438150673145" width="395.52"><g><svg viewBox="0 0 469.93859081432595 63.84002424242424" height="53.730438150673145" width="395.52"><g transform="matrix(1,0,0,1,0,8.823042424242427)"><svg viewBox="0 0 395.52 46.19393939393939" height="46.19393939393939" width="395.52"><g id="textblocktransform"><svg viewBox="0 0 395.52 46.19393939393939" height="46.19393939393939" width="395.52" id="textblock"><g><svg viewBox="0 0 395.52 46.19393939393939" height="46.19393939393939" width="395.52"><g transform="matrix(1,0,0,1,0,0)"><svg width="395.52" viewBox="0.20000000298023224 -36.5 316.7799987792969 37" height="46.19393939393939" data-palette-color="#f3d76b"><path d="M22.7-19.55L16.6-35.35 21.85-35.35 26.25-23.3 30.7-35.35 35.95-35.35 29.85-19.55 35.15-6.5 46.2-35.5 52.35-35.5 37.8 0 32.95 0 26.3-15.9 19.6 0 14.7 0 0.2-35.5 6.3-35.5 17.4-6.5 22.7-19.55ZM79.3-15.95L79.3 0 73.8 0 73.8-14.65Q73.8-18.2 72.5-19.95 71.2-21.7 68.85-21.7L68.85-21.7Q67.4-21.7 65.85-20.9 64.3-20.1 63.1-18.73 61.9-17.35 61.35-15.55L61.35-15.55 61.35 0 55.85 0 55.85-36.5 61.35-36.5 61.35-20.9Q62.85-23.55 65.45-25.08 68.05-26.6 71.05-26.6L71.05-26.6Q73.5-26.6 75.1-25.75 76.7-24.9 77.62-23.43 78.55-21.95 78.92-20.03 79.3-18.1 79.3-15.95L79.3-15.95ZM97.45 0.5L97.45 0.5Q94.35 0.5 91.9-0.58 89.45-1.65 87.67-3.55 85.9-5.45 84.95-7.88 84-10.3 84-13.05L84-13.05Q84-15.8 84.95-18.25 85.9-20.7 87.67-22.58 89.45-24.45 91.92-25.53 94.4-26.6 97.45-26.6L97.45-26.6Q100.5-26.6 102.97-25.53 105.45-24.45 107.22-22.58 109-20.7 109.95-18.25 110.9-15.8 110.9-13.05L110.9-13.05Q110.9-10.3 109.95-7.88 109-5.45 107.22-3.55 105.45-1.65 102.97-0.58 100.5 0.5 97.45 0.5ZM89.65-13L89.65-13Q89.65-10.5 90.7-8.5 91.75-6.5 93.5-5.35 95.25-4.2 97.45-4.2L97.45-4.2Q99.6-4.2 101.37-5.38 103.15-6.55 104.2-8.58 105.25-10.6 105.25-13.05L105.25-13.05Q105.25-15.55 104.2-17.55 103.15-19.55 101.37-20.73 99.6-21.9 97.45-21.9L97.45-21.9Q95.25-21.9 93.5-20.7 91.75-19.5 90.7-17.53 89.65-15.55 89.65-13ZM125.09 0.5L125.09 0.5Q121.79 0.5 118.84-0.58 115.89-1.65 113.79-3.8L113.79-3.8 115.84-7.5Q118.09-5.5 120.37-4.6 122.64-3.7 124.89-3.7L124.89-3.7Q127.19-3.7 128.64-4.58 130.09-5.45 130.09-7.15L130.09-7.15Q130.09-8.4 129.34-9 128.59-9.6 127.17-10.05 125.74-10.5 123.74-11.05L123.74-11.05Q120.94-11.9 119.04-12.83 117.14-13.75 116.19-15.1 115.24-16.45 115.24-18.55L115.24-18.55Q115.24-21.1 116.54-22.9 117.84-24.7 120.17-25.65 122.49-26.6 125.54-26.6L125.54-26.6Q128.39-26.6 130.82-25.73 133.24-24.85 135.09-23L135.09-23 132.74-19.35Q130.99-20.95 129.17-21.7 127.34-22.45 125.24-22.45L125.24-22.45Q124.04-22.45 122.94-22.18 121.84-21.9 121.12-21.18 120.39-20.45 120.39-19.15L120.39-19.15Q120.39-18.1 120.99-17.45 121.59-16.8 122.79-16.35 123.99-15.9 125.74-15.35L125.74-15.35Q128.79-14.45 130.94-13.58 133.09-12.7 134.27-11.33 135.44-9.95 135.44-7.55L135.44-7.55Q135.44-3.75 132.62-1.63 129.79 0.5 125.09 0.5ZM152.19 0.5L152.19 0.5Q149.14 0.5 146.67-0.58 144.19-1.65 142.39-3.53 140.59-5.4 139.62-7.83 138.64-10.25 138.64-13L138.64-13Q138.64-16.7 140.34-19.78 142.04-22.85 145.09-24.73 148.14-26.6 152.24-26.6L152.24-26.6Q156.34-26.6 159.32-24.73 162.29-22.85 163.94-19.8 165.59-16.75 165.59-13.25L165.59-13.25Q165.59-12.65 165.54-12.13 165.49-11.6 165.44-11.25L165.44-11.25 144.49-11.25Q144.64-8.95 145.77-7.23 146.89-5.5 148.64-4.53 150.39-3.55 152.39-3.55L152.39-3.55Q154.59-3.55 156.57-4.65 158.54-5.75 159.24-7.55L159.24-7.55 163.94-6.2Q163.09-4.3 161.37-2.78 159.64-1.25 157.29-0.38 154.94 0.5 152.19 0.5ZM144.34-14.9L144.34-14.9 160.14-14.9Q159.99-17.15 158.87-18.88 157.74-20.6 156.02-21.58 154.29-22.55 152.19-22.55L152.19-22.55Q150.14-22.55 148.42-21.58 146.69-20.6 145.59-18.88 144.49-17.15 144.34-14.9ZM194.04-35.5L199.69-35.5 199.69 0 194.04 0 194.04-15.65 176.14-15.65 176.14 0 170.54 0 170.54-35.5 176.14-35.5 176.14-20.65 194.04-20.65 194.04-35.5ZM218.29 0.5L218.29 0.5Q215.19 0.5 212.74-0.58 210.29-1.65 208.51-3.55 206.74-5.45 205.79-7.88 204.84-10.3 204.84-13.05L204.84-13.05Q204.84-15.8 205.79-18.25 206.74-20.7 208.51-22.58 210.29-24.45 212.76-25.53 215.24-26.6 218.29-26.6L218.29-26.6Q221.34-26.6 223.81-25.53 226.29-24.45 228.06-22.58 229.84-20.7 230.79-18.25 231.74-15.8 231.74-13.05L231.74-13.05Q231.74-10.3 230.79-7.88 229.84-5.45 228.06-3.55 226.29-1.65 223.81-0.58 221.34 0.5 218.29 0.5ZM210.49-13L210.49-13Q210.49-10.5 211.54-8.5 212.59-6.5 214.34-5.35 216.09-4.2 218.29-4.2L218.29-4.2Q220.44-4.2 222.21-5.38 223.99-6.55 225.04-8.58 226.09-10.6 226.09-13.05L226.09-13.05Q226.09-15.55 225.04-17.55 223.99-19.55 222.21-20.73 220.44-21.9 218.29-21.9L218.29-21.9Q216.09-21.9 214.34-20.7 212.59-19.5 211.54-17.53 210.49-15.55 210.49-13ZM249.63-5.7L250.78-1.35Q250.08-1 249.03-0.6 247.98-0.2 246.66 0.1 245.33 0.4 243.93 0.4L243.93 0.4Q242.23 0.4 240.78-0.2 239.33-0.8 238.46-2.13 237.58-3.45 237.58-5.55L237.58-5.55 237.58-21.9 234.13-21.9 234.13-26.15 237.58-26.15 237.58-34.75 243.08-34.75 243.08-26.15 248.78-26.15 248.78-21.9 243.08-21.9 243.08-7.3Q243.18-5.95 243.96-5.3 244.73-4.65 245.88-4.65L245.88-4.65Q247.03-4.65 248.08-5.05 249.13-5.45 249.63-5.7L249.63-5.7ZM267.93-5.7L269.08-1.35Q268.38-1 267.33-0.6 266.28-0.2 264.96 0.1 263.63 0.4 262.23 0.4L262.23 0.4Q260.53 0.4 259.08-0.2 257.63-0.8 256.75-2.13 255.88-3.45 255.88-5.55L255.88-5.55 255.88-21.9 252.43-21.9 252.43-26.15 255.88-26.15 255.88-34.75 261.38-34.75 261.38-26.15 267.08-26.15 267.08-21.9 261.38-21.9 261.38-7.3Q261.48-5.95 262.25-5.3 263.03-4.65 264.18-4.65L264.18-4.65Q265.33-4.65 266.38-5.05 267.43-5.45 267.93-5.7L267.93-5.7ZM284.38 0.5L284.38 0.5Q281.33 0.5 278.85-0.58 276.38-1.65 274.58-3.53 272.78-5.4 271.8-7.83 270.83-10.25 270.83-13L270.83-13Q270.83-16.7 272.53-19.78 274.23-22.85 277.28-24.73 280.33-26.6 284.43-26.6L284.43-26.6Q288.53-26.6 291.5-24.73 294.48-22.85 296.13-19.8 297.78-16.75 297.78-13.25L297.78-13.25Q297.78-12.65 297.73-12.13 297.68-11.6 297.63-11.25L297.63-11.25 276.68-11.25Q276.83-8.95 277.95-7.23 279.08-5.5 280.83-4.53 282.58-3.55 284.58-3.55L284.58-3.55Q286.78-3.55 288.75-4.65 290.73-5.75 291.43-7.55L291.43-7.55 296.13-6.2Q295.28-4.3 293.55-2.78 291.83-1.25 289.48-0.38 287.13 0.5 284.38 0.5ZM276.53-14.9L276.53-14.9 292.33-14.9Q292.18-17.15 291.05-18.88 289.93-20.6 288.2-21.58 286.48-22.55 284.38-22.55L284.38-22.55Q282.33-22.55 280.6-21.58 278.88-20.6 277.78-18.88 276.68-17.15 276.53-14.9ZM316.98-26.35L316.98-21.4Q313.78-21.35 311.3-19.95 308.83-18.55 307.78-16L307.78-16 307.78 0 302.28 0 302.28-26.15 307.38-26.15 307.38-20.3Q308.73-23 310.93-24.63 313.13-26.25 315.58-26.4L315.58-26.4Q316.08-26.4 316.4-26.4 316.73-26.4 316.98-26.35L316.98-26.35Z" opacity="1" transform="matrix(1,0,0,1,0,0)" fill="#f3d76b" class="wordmark-text-0" data-fill-palette-color="primary" id="text-0"></path></svg></g></svg></g></svg></g></svg></g><g transform="matrix(1,0,0,1,406.4252804363636,0)"><svg viewBox="0 0 63.513310377962355 63.84002424242424" height="63.84002424242424" width="63.513310377962355"><g><svg xmlns="http://www.w3.org/2000/svg" xmlns:xlink="http://www.w3.org/1999/xlink" version="1.1" x="0" y="0" viewBox="2 1.7000000476837158 96.10563659667969 96.60000610351562" enable-background="new 0 0 100 100" xml:space="preserve" height="63.84002424242424" width="63.513310377962355" class="icon-icon-0" data-fill-palette-color="accent" id="icon-0"><path d="M25.5 4c0-1.3-1-2.3-2.3-2.3-1.3 0-2.3 1-2.3 2.3v5.1h4.7V4zM23.2 34.3c6.3 0 11.5-5.1 11.5-11.5 0-6.3-5.1-11.5-11.5-11.5-6.3 0-11.5 5.1-11.5 11.5C11.7 29.2 16.8 34.3 23.2 34.3zM38.9 11.7c0.9-0.9 0.9-2.4 0-3.3-0.9-0.9-2.4-0.9-3.3 0L32 12.1l3.3 3.3L38.9 11.7zM32 33.6l3.6 3.6c0.9 0.9 2.4 0.9 3.3 0 0.9-0.9 0.9-2.4 0-3.3l-3.6-3.6L32 33.6zM36.8 25.2h5.1c1.3 0 2.3-1 2.3-2.3 0-1.3-1-2.3-2.3-2.3h-5.1V25.2zM11 15.4l3.3-3.3-3.6-3.6c-0.9-0.9-2.4-0.9-3.3 0-0.9 0.9-0.9 2.4 0 3.3L11 15.4zM20.8 41.7c0 1.3 1 2.3 2.3 2.3 1.3 0 2.3-1 2.3-2.3v-5.1h-4.7V41.7zM4.3 25.2h5.1v-4.7H4.3c-1.3 0-2.3 1-2.3 2.3C2 24.1 3 25.2 4.3 25.2zM7.4 33.9c-0.9 0.9-0.9 2.4 0 3.3 0.9 0.9 2.4 0.9 3.3 0l3.6-3.6L11 30.3 7.4 33.9zM84.4 94.3c-10.4 0-13.6-6-22.4-6-1 0-2.1 0.1-3.2 0.2l11.5-29.3c1.6-0.2 3.5 0.1 5.5 0.9 2.9 1.1 5 2.9 5.7 4.6 0.2 0.6 0.9 0.8 1.5 0.6 1.7-0.8 4.5-0.7 7.3 0.4 2.1 0.8 3.9 2 4.9 3.3 0.6 0.7 1.8 0.5 2-0.4 3.7-14.9-4.2-30.6-18.9-36.3C63.4 26.5 47 32.9 39.8 46.5c-0.4 0.8 0.3 1.8 1.2 1.7 1.6-0.3 3.7 0 5.8 0.8 2.8 1.1 4.9 2.9 5.6 4.6 0.2 0.6 0.9 0.8 1.5 0.6 1.7-0.8 4.5-0.7 7.3 0.4 2 0.8 3.7 1.9 4.7 3.1L53.4 89.4c-2 0.4-4 0.9-6.3 1.4v-7.7c0-1.1-0.4-2.1-1.2-2.8l3.5-3.5c0.8-0.8 0.8-2 0-2.8s-2-0.8-2.8 0L35.8 85H18.7c-2.8 0-5.1 2.3-5.1 5.1V94C6.3 94.9 2 96.5 2 98.3h96C98 98.3 94.8 94.3 84.4 94.3zM65 50.1c-0.2 0.4-0.5 0.6-0.9 0.6-0.1 0-0.2 0-0.4-0.1-0.5-0.2-0.8-0.8-0.6-1.3 0.1-0.4 3-7.9 10.5-11.4-12.6-1.7-20.3 7-20.6 7.4-0.2 0.2-0.5 0.3-0.8 0.3-0.2 0-0.5-0.1-0.7-0.2-0.4-0.4-0.5-1-0.1-1.4 0.1-0.1 10.2-11.6 26.1-7.3l0 0c0 0 0.1 0 0.1 0.1 0 0 0.1 0 0.1 0 0 0 0 0 0 0C92 45.5 90.1 60.8 90.1 60.9c-0.1 0.5-0.5 0.9-1 0.9 0 0-0.1 0-0.1 0-0.5-0.1-0.9-0.6-0.9-1.1 0.1-0.5 1.4-12-8.4-20.1 2.5 7.9-1.3 15.2-1.5 15.6-0.2 0.3-0.5 0.5-0.9 0.5-0.2 0-0.3 0-0.5-0.1-0.5-0.3-0.7-0.9-0.4-1.4 0-0.1 4.4-8.5 0.4-16.4C68.3 41.4 65 50 65 50.1zM43.2 91.7c-4.5 0.9-9.5 1.6-15.3 1.6-3.8 0-7.2 0.1-10.3 0.4v-3.5c0-0.6 0.5-1.1 1.1-1.1h18.7l0.6-0.6c0 0 0 0 0 0l5.2-5.2V91.7z" fill="#0074d9" data-fill-palette-color="accent"></path></svg></g></svg></g></svg></g><defs></defs></svg><rect width="395.52" height="53.730438150673145" fill="none" stroke="none" visibility="hidden"></rect></g></svg></g></svg>